<mxfile host="app.diagrams.net" modified="2024-01-07T22:01:43.936Z" agent="Mozilla/5.0 (Windows NT 10.0; Win64; x64) AppleWebKit/537.36 (KHTML, like Gecko) Chrome/120.0.0.0 Safari/537.36 Edg/120.0.0.0" etag="x0KxsuDu3UVPmRzxJU7H" version="22.1.17" type="device">
  <diagram name="Страница — 1" id="fb2ycnzyfPzOi-fJP38A">
    <mxGraphModel dx="746" dy="459" grid="1" gridSize="10" guides="1" tooltips="1" connect="1" arrows="1" fold="1" page="1" pageScale="1" pageWidth="827" pageHeight="1169" math="0" shadow="0">
      <root>
        <mxCell id="0" />
        <mxCell id="1" parent="0" />
        <mxCell id="rQzbrnGI7KWKKlfRd2qd-12" value="" style="edgeStyle=orthogonalEdgeStyle;rounded=0;orthogonalLoop=1;jettySize=auto;html=1;" edge="1" parent="1" source="rQzbrnGI7KWKKlfRd2qd-1" target="rQzbrnGI7KWKKlfRd2qd-2">
          <mxGeometry relative="1" as="geometry" />
        </mxCell>
        <mxCell id="rQzbrnGI7KWKKlfRd2qd-1" value="START" style="rounded=1;whiteSpace=wrap;html=1;" vertex="1" parent="1">
          <mxGeometry x="220" y="20" width="120" height="60" as="geometry" />
        </mxCell>
        <mxCell id="rQzbrnGI7KWKKlfRd2qd-13" value="" style="edgeStyle=orthogonalEdgeStyle;rounded=0;orthogonalLoop=1;jettySize=auto;html=1;" edge="1" parent="1" source="rQzbrnGI7KWKKlfRd2qd-2" target="rQzbrnGI7KWKKlfRd2qd-3">
          <mxGeometry relative="1" as="geometry">
            <Array as="points">
              <mxPoint x="280" y="210" />
              <mxPoint x="280" y="210" />
            </Array>
          </mxGeometry>
        </mxCell>
        <mxCell id="rQzbrnGI7KWKKlfRd2qd-2" value="First Array []&lt;br&gt;Second Array []&lt;br&gt;int count = 0" style="rounded=0;whiteSpace=wrap;html=1;" vertex="1" parent="1">
          <mxGeometry x="220" y="120" width="120" height="60" as="geometry" />
        </mxCell>
        <mxCell id="rQzbrnGI7KWKKlfRd2qd-14" value="" style="edgeStyle=orthogonalEdgeStyle;rounded=0;orthogonalLoop=1;jettySize=auto;html=1;" edge="1" parent="1" source="rQzbrnGI7KWKKlfRd2qd-3" target="rQzbrnGI7KWKKlfRd2qd-5">
          <mxGeometry relative="1" as="geometry" />
        </mxCell>
        <mxCell id="rQzbrnGI7KWKKlfRd2qd-3" value="Keyboard input" style="shape=parallelogram;perimeter=parallelogramPerimeter;whiteSpace=wrap;html=1;fixedSize=1;" vertex="1" parent="1">
          <mxGeometry x="210" y="220" width="120" height="60" as="geometry" />
        </mxCell>
        <mxCell id="rQzbrnGI7KWKKlfRd2qd-18" value="" style="edgeStyle=orthogonalEdgeStyle;rounded=0;orthogonalLoop=1;jettySize=auto;html=1;" edge="1" parent="1" source="rQzbrnGI7KWKKlfRd2qd-4" target="rQzbrnGI7KWKKlfRd2qd-9">
          <mxGeometry relative="1" as="geometry" />
        </mxCell>
        <mxCell id="rQzbrnGI7KWKKlfRd2qd-4" value="ModArray" style="shape=parallelogram;perimeter=parallelogramPerimeter;whiteSpace=wrap;html=1;fixedSize=1;" vertex="1" parent="1">
          <mxGeometry x="390" y="335" width="120" height="60" as="geometry" />
        </mxCell>
        <mxCell id="rQzbrnGI7KWKKlfRd2qd-15" value="" style="edgeStyle=orthogonalEdgeStyle;rounded=0;orthogonalLoop=1;jettySize=auto;html=1;" edge="1" parent="1" source="rQzbrnGI7KWKKlfRd2qd-5" target="rQzbrnGI7KWKKlfRd2qd-4">
          <mxGeometry relative="1" as="geometry" />
        </mxCell>
        <mxCell id="rQzbrnGI7KWKKlfRd2qd-16" value="" style="edgeStyle=orthogonalEdgeStyle;rounded=0;orthogonalLoop=1;jettySize=auto;html=1;" edge="1" parent="1" source="rQzbrnGI7KWKKlfRd2qd-5" target="rQzbrnGI7KWKKlfRd2qd-6">
          <mxGeometry relative="1" as="geometry" />
        </mxCell>
        <mxCell id="rQzbrnGI7KWKKlfRd2qd-5" value="First Array&lt;br&gt;i &amp;lt; array.length" style="rhombus;whiteSpace=wrap;html=1;" vertex="1" parent="1">
          <mxGeometry x="190" y="320" width="160" height="90" as="geometry" />
        </mxCell>
        <mxCell id="rQzbrnGI7KWKKlfRd2qd-17" style="edgeStyle=orthogonalEdgeStyle;rounded=0;orthogonalLoop=1;jettySize=auto;html=1;" edge="1" parent="1" target="rQzbrnGI7KWKKlfRd2qd-5">
          <mxGeometry relative="1" as="geometry">
            <mxPoint x="140" y="410" as="targetPoint" />
            <mxPoint x="220" y="495" as="sourcePoint" />
            <Array as="points">
              <mxPoint x="220" y="475" />
              <mxPoint x="50" y="475" />
              <mxPoint x="50" y="365" />
            </Array>
          </mxGeometry>
        </mxCell>
        <mxCell id="rQzbrnGI7KWKKlfRd2qd-6" value="int i = 0, i++" style="rounded=0;whiteSpace=wrap;html=1;" vertex="1" parent="1">
          <mxGeometry x="210" y="450" width="120" height="60" as="geometry" />
        </mxCell>
        <mxCell id="rQzbrnGI7KWKKlfRd2qd-7" value="END" style="rounded=1;whiteSpace=wrap;html=1;" vertex="1" parent="1">
          <mxGeometry x="600" y="650" width="120" height="60" as="geometry" />
        </mxCell>
        <mxCell id="rQzbrnGI7KWKKlfRd2qd-22" value="" style="edgeStyle=orthogonalEdgeStyle;rounded=0;orthogonalLoop=1;jettySize=auto;html=1;" edge="1" parent="1" source="rQzbrnGI7KWKKlfRd2qd-8" target="rQzbrnGI7KWKKlfRd2qd-7">
          <mxGeometry relative="1" as="geometry">
            <Array as="points">
              <mxPoint x="660" y="560" />
              <mxPoint x="660" y="560" />
            </Array>
          </mxGeometry>
        </mxCell>
        <mxCell id="rQzbrnGI7KWKKlfRd2qd-8" value="PRINT to console" style="shape=document;whiteSpace=wrap;html=1;boundedLbl=1;" vertex="1" parent="1">
          <mxGeometry x="600" y="510" width="120" height="80" as="geometry" />
        </mxCell>
        <mxCell id="rQzbrnGI7KWKKlfRd2qd-19" value="" style="edgeStyle=orthogonalEdgeStyle;rounded=0;orthogonalLoop=1;jettySize=auto;html=1;" edge="1" parent="1" source="rQzbrnGI7KWKKlfRd2qd-9" target="rQzbrnGI7KWKKlfRd2qd-8">
          <mxGeometry relative="1" as="geometry" />
        </mxCell>
        <mxCell id="rQzbrnGI7KWKKlfRd2qd-20" value="" style="edgeStyle=orthogonalEdgeStyle;rounded=0;orthogonalLoop=1;jettySize=auto;html=1;" edge="1" parent="1" source="rQzbrnGI7KWKKlfRd2qd-9" target="rQzbrnGI7KWKKlfRd2qd-10">
          <mxGeometry relative="1" as="geometry" />
        </mxCell>
        <mxCell id="rQzbrnGI7KWKKlfRd2qd-9" value="Second Array&lt;br&gt;i &amp;lt; array.length&lt;br&gt;Second Array [count]" style="rhombus;whiteSpace=wrap;html=1;" vertex="1" parent="1">
          <mxGeometry x="360" y="500" width="180" height="100" as="geometry" />
        </mxCell>
        <mxCell id="rQzbrnGI7KWKKlfRd2qd-23" style="edgeStyle=orthogonalEdgeStyle;rounded=0;orthogonalLoop=1;jettySize=auto;html=1;exitX=-0.033;exitY=0.644;exitDx=0;exitDy=0;exitPerimeter=0;entryX=0;entryY=0.5;entryDx=0;entryDy=0;" edge="1" parent="1" source="rQzbrnGI7KWKKlfRd2qd-10" target="rQzbrnGI7KWKKlfRd2qd-9">
          <mxGeometry relative="1" as="geometry">
            <mxPoint x="300" y="550" as="targetPoint" />
            <mxPoint x="329.5" y="700" as="sourcePoint" />
            <Array as="points">
              <mxPoint x="270" y="689" />
              <mxPoint x="270" y="550" />
            </Array>
          </mxGeometry>
        </mxCell>
        <mxCell id="rQzbrnGI7KWKKlfRd2qd-10" value="count++" style="rounded=0;whiteSpace=wrap;html=1;" vertex="1" parent="1">
          <mxGeometry x="390" y="650" width="120" height="60" as="geometry" />
        </mxCell>
      </root>
    </mxGraphModel>
  </diagram>
</mxfile>
